# Blender 3.3.1
# www.blender.org
o Cube
v 1.000000 1.000000 -1.000000
v 1.599538 -1.000000 -1.599538
v 1.000000 1.000000 1.000000
v 1.599538 -1.000000 1.599538
v -1.000000 1.000000 -1.000000
v -1.599538 -1.000000 -1.599538
v -1.000000 1.000000 1.000000
v -1.599538 -1.000000 1.599538
v 1.000000 4.986338 1.000000
v -1.000000 4.986338 1.000000
v 1.000000 4.986338 -1.000000
v -1.000000 4.986338 -1.000000
v 1.362259 6.583684 1.362259
v -1.362259 6.583684 1.362259
v 1.362259 6.583684 -1.362259
v -1.362259 6.583684 -1.362259
v 1.362259 7.724149 1.362259
v -1.362259 7.724149 1.362259
v 1.362259 7.724149 -1.362259
v -1.362259 7.724149 -1.362259
v 2.090305 9.262446 2.090305
v -2.090305 9.384120 2.090305
v 2.090305 9.206007 -2.090305
v -2.090305 9.216501 -2.090305
v 0.000000 8.782713 2.090305
v 2.090305 8.782713 0.000000
v -2.090305 8.782713 0.000000
v 0.000000 8.782713 -2.090305
v 0.000000 8.782713 0.000000
v -1.045153 8.782713 2.090305
v 2.090305 8.782713 1.045153
v -2.090305 8.782713 -1.045153
v 1.045153 8.782713 -2.090305
v 1.045153 8.782713 2.090305
v 2.090305 8.782713 -1.045153
v -2.090305 8.782713 1.045153
v -1.045153 8.782713 -2.090305
v 0.000000 8.782713 1.045153
v 0.000000 8.782713 -1.045153
v 1.045153 8.782713 0.000000
v -1.045153 8.782713 0.000000
v -1.045153 8.782713 -1.045153
v 1.045153 8.782713 -1.045153
v 1.045153 8.782713 1.045153
v -1.045153 8.782713 1.045153
v -1.567729 9.384120 2.090305
v 2.090305 9.262446 1.567729
v -2.090305 9.216501 -1.567729
v 1.567729 9.206007 -2.090305
v 0.522576 8.782713 2.090305
v 2.090305 8.782713 -0.522576
v -2.090305 8.782713 0.522576
v -0.522576 8.782713 -2.090305
v 0.000000 8.782713 -0.522576
v 1.567729 8.782713 0.000000
v -0.522576 8.782713 0.000000
v -0.522576 8.782713 2.090305
v 2.090305 8.782713 0.522576
v -2.090305 8.782713 -0.522576
v 0.522576 8.782713 -2.090305
v 1.567729 9.262446 2.090305
v 2.090305 9.206007 -1.567729
v -2.090305 9.384120 1.567729
v -1.567729 9.216501 -2.090305
v 0.000000 8.782713 0.522576
v 0.522576 8.782713 0.000000
v -1.567729 8.782713 0.000000
v -1.045153 8.782713 -0.522576
v -1.045153 8.782713 -1.567729
v -0.522576 8.782713 -1.045153
v -1.567729 8.782713 -1.045153
v 1.045153 8.782713 -0.522576
v 1.045153 8.782713 -1.567729
v 1.567729 8.782713 -1.045153
v 0.522576 8.782713 -1.045153
v 1.045153 8.782713 1.567729
v 1.045153 8.782713 0.522576
v 1.567729 8.782713 1.045153
v 0.522576 8.782713 1.045153
v -1.045153 8.782713 1.567729
v -1.045153 8.782713 0.522576
v -0.522576 8.782713 1.045153
v -1.567729 8.782713 1.045153
v -1.567729 8.782713 0.522576
v -0.522576 8.782713 0.522576
v -0.522576 8.782713 1.567729
v 0.522576 8.782713 0.522576
v 1.567729 8.782713 0.522576
v 1.567729 9.262446 1.567729
v 0.522576 8.782713 -1.567729
v 1.567729 9.206007 -1.567729
v 1.567729 8.782713 -0.522576
v -1.567729 9.216501 -1.567729
v -0.522576 8.782713 -1.567729
v -0.522576 8.782713 -0.522576
v -1.567729 8.782713 -0.522576
v 0.522576 8.782713 -0.522576
v 0.522576 8.782713 1.567729
v -1.567729 9.384120 1.567729
v 0.522576 11.512234 3.446550
v 0.000000 11.512234 3.446550
v -0.522576 11.512234 2.401398
v 0.000000 11.512234 2.401398
v -0.522576 11.512234 3.446550
v 0.522576 11.512234 2.401398
v -0.522576 11.512234 2.923974
v 0.522576 11.512234 2.923974
v -0.522576 11.457139 -3.434447
v 0.000000 11.457139 -3.434447
v 0.522576 13.379915 1.926270
v 0.000000 11.457139 -2.389294
v -0.522576 11.457139 -2.389294
v 0.522576 11.457139 -3.434447
v 0.522576 11.457139 -2.389294
v 0.522576 11.457139 -2.911871
v -0.522576 11.457139 -2.911871
v -0.522576 13.458488 -2.008488
v 0.000000 13.458488 -2.008488
v 0.000000 13.458488 -1.950623
v 0.000000 13.458488 -1.892757
v -0.522576 13.458488 -1.892757
v 0.522576 13.458488 -2.008488
v 0.522576 13.458488 -1.892757
v 0.522576 13.458488 -1.950623
v -0.522576 13.458488 -1.950623
v 0.000000 13.379915 1.926270
v 0.000000 13.379915 1.858029
v -0.522576 13.379915 1.789787
v 0.000000 13.379915 1.789787
v -0.522576 13.379915 1.926270
v 0.522576 13.379915 1.789787
v -0.522576 13.379915 1.858029
v 0.522576 13.379915 1.858029
vn -1.0000 -0.0000 -0.0000
vn -0.0000 0.2871 0.9579
vn -0.9579 0.2871 -0.0000
vn -0.0000 -1.0000 -0.0000
vn 0.9579 0.2871 -0.0000
vn -0.0000 0.2871 -0.9579
vn 0.9752 -0.2212 -0.0000
vn 1.0000 -0.0000 -0.0000
vn -0.0000 -0.0000 -1.0000
vn -0.0000 -0.0000 1.0000
vn -0.9752 -0.2212 -0.0000
vn -0.0000 -0.2212 0.9752
vn -0.0000 -0.2212 -0.9752
vn -0.0000 -0.5667 -0.8239
vn -0.0000 1.0000 -0.0000
vn 0.8239 -0.5667 -0.0000
vn -0.8239 -0.5667 -0.0000
vn -0.0000 -0.5667 0.8239
vn -0.0000 0.4450 -0.8955
vn -0.0000 0.7694 0.6387
vn -0.5327 0.6576 0.5327
vn -0.6763 0.7367 -0.0000
vn -0.0000 -0.4450 0.8955
vn -0.0000 0.7367 -0.6763
vn -0.5602 0.6102 -0.5602
vn -0.0000 0.4491 0.8935
vn -0.0000 0.7771 0.6294
vn -0.6294 0.7771 -0.0000
vn 0.6387 0.7694 -0.0000
vn -0.0000 -0.4491 -0.8935
vn 0.7548 0.6559 -0.0000
vn -0.0000 0.6559 -0.7548
vn -0.0000 -0.3112 -0.9503
vn -0.0000 0.6313 0.7755
vn -0.0000 0.5803 -0.8144
vn -0.0000 -0.2408 0.9706
vn -0.0000 -0.4410 -0.8975
vn -0.0000 -0.4385 -0.8988
vn -0.3718 -0.4479 -0.8131
vn 0.3652 -0.4508 -0.8145
vn 0.8326 -0.5034 0.2311
vn 0.8975 -0.4410 -0.0000
vn 0.8145 -0.4508 -0.3652
vn -0.8988 -0.4385 -0.0000
vn -0.8281 -0.4858 0.2796
vn -0.8131 -0.4479 -0.3718
vn -0.2796 -0.4858 0.8281
vn 0.2311 -0.5034 0.8326
vn 0.5383 0.6485 0.5383
vn 0.6025 0.5235 -0.6025
vt 0.165056 0.667380
vt 0.835093 0.105594
vt 0.867127 0.000000
vt 0.840874 0.554707
vt 0.197081 0.770200
vt 0.728270 0.105594
vt 0.281542 0.662997
vt 0.249483 0.766512
vt 0.840874 0.725574
vt 0.696260 0.000000
vt 0.484641 0.111848
vt 0.058233 0.667380
vt 0.670008 0.554707
vt 0.026215 0.770200
vt 0.447786 0.007816
vt 0.388364 0.662997
vt 0.591351 0.106961
vt 0.618473 0.000000
vt 0.420349 0.766512
vt 0.670008 0.725574
vt 0.728268 0.318369
vt 0.281559 0.450942
vt 0.388381 0.450942
vt 0.601092 0.319517
vt 0.835090 0.318369
vt 0.165054 0.455668
vt 0.494382 0.324403
vt 0.058232 0.455668
vt 0.708924 0.404330
vt 0.262200 0.364233
vt 0.624337 0.404496
vt 0.407720 0.364233
vt 0.184404 0.368780
vt 0.854444 0.404330
vt 0.478969 0.411153
vt 0.038884 0.368780
vt 0.708924 0.465203
vt 0.262205 0.303566
vt 0.627123 0.465307
vt 0.407724 0.303566
vt 0.184403 0.308211
vt 0.854443 0.465203
vt 0.038883 0.308211
vt 0.481756 0.471964
vt 0.670050 0.548719
vt 0.223291 0.218244
vt 0.446735 0.554707
vt 0.279114 0.794422
vt 0.670050 0.553431
vt 0.446583 0.211771
vt 0.670005 0.554737
vt 0.223291 0.225383
vt 0.893341 0.545706
vt 0.000000 0.224825
vt 0.446583 0.554707
vt 0.670008 0.778019
vt 0.334935 0.243763
vt 0.781696 0.523113
vt 0.558227 0.554890
vt 0.557052 0.526470
vt 0.558227 0.778175
vt 0.111646 0.247864
vt 0.558227 0.666533
vt 0.390758 0.243763
vt 0.446583 0.722349
vt 0.251203 0.797603
vt 0.725873 0.523113
vt 0.502405 0.554887
vt 0.501287 0.529024
vt 0.614049 0.778178
vt 0.167469 0.247864
vt 0.669870 0.610716
vt 0.279112 0.243763
vt 0.446583 0.610707
vt 0.837519 0.523113
vt 0.614048 0.554892
vt 0.612816 0.523917
vt 0.502405 0.778173
vt 0.251203 0.795489
vt 0.055823 0.247864
vt 0.669870 0.722359
vt 0.972089 0.794641
vt 0.502405 0.666530
vt 0.614048 0.666535
vt 0.801260 0.725580
vt 0.558227 0.610711
vt 0.558227 0.722354
vt 0.614049 0.722356
vt 0.614048 0.610713
vt 0.502405 0.610709
vt 0.502405 0.722352
vt 0.279114 0.766512
vt 0.418671 0.211771
vt 0.251203 0.766512
vt 0.697961 0.548719
vt 0.474646 0.554708
vt 0.474465 0.553431
vt 0.642097 0.778018
vt 0.195380 0.225383
vt 0.670005 0.582648
vt 0.307023 0.243763
vt 0.446583 0.638617
vt 0.718204 0.734506
vt 0.809607 0.523113
vt 0.586138 0.554891
vt 0.584934 0.525193
vt 0.530316 0.778174
vt 0.669870 0.694448
vt 0.083735 0.247864
vt 0.938503 0.009961
vt 0.586138 0.666534
vt 0.558227 0.582800
vt 0.558227 0.694443
vt 0.362846 0.243763
vt 0.446583 0.694439
vt 0.889070 0.795529
vt 0.753784 0.523113
vt 0.530316 0.554888
vt 0.529169 0.527747
vt 0.586138 0.778177
vt 0.139557 0.247864
vt 0.669870 0.638626
vt 0.938502 0.499541
vt 0.251203 0.218244
vt 0.446735 0.582618
vt 0.865430 0.545706
vt 0.642094 0.554736
vt 0.307025 0.794424
vt 0.642168 0.554707
vt 0.251203 0.766512
vt 0.027911 0.224825
vt 0.670008 0.750109
vt 0.530316 0.666531
vt 0.558227 0.638622
vt 0.558227 0.750265
vt 0.586138 0.722355
vt 0.641959 0.722358
vt 0.773349 0.725587
vt 0.993429 0.000000
vt 0.614049 0.694446
vt 0.614049 0.750267
vt 0.586138 0.610712
vt 0.641959 0.610714
vt 0.614048 0.582803
vt 0.993429 0.509503
vt 0.829172 0.725574
vt 0.614048 0.638624
vt 0.474494 0.610708
vt 0.530316 0.610710
vt 0.502405 0.582798
vt 1.000000 0.794641
vt 0.502405 0.638619
vt 0.773307 0.725574
vt 0.223291 0.797611
vt 0.474494 0.722351
vt 0.530316 0.722353
vt 0.944173 0.804462
vt 0.502405 0.694441
vt 0.944177 0.794640
vt 0.279114 0.795491
vt 0.502405 0.750262
vt 0.530316 0.750264
vt 0.530316 0.694442
vt 0.474494 0.694440
vt 0.916622 0.799996
vt 0.530316 0.638621
vt 0.530316 0.582799
vt 0.474646 0.582619
vt 0.641959 0.638625
vt 0.965966 0.504522
vt 0.642094 0.582647
vt 0.586138 0.582802
vt 0.642097 0.750108
vt 0.641959 0.694447
vt 0.965966 0.004981
vt 0.586138 0.694444
vt 0.586138 0.750266
vt 0.586138 0.638623
vt 0.474494 0.638618
vt 0.745756 0.730040
vt 0.307025 0.766513
vt 0.223291 0.766521
vt 0.474685 0.750039
vt 0.279114 0.766514
vt 0.670008 0.889911
vt 0.306971 0.092059
vt 0.334882 0.092059
vt 0.895978 0.649054
vt 0.944173 0.657367
vt 0.972085 0.657368
vt 0.362794 0.092059
vt 0.840874 0.640121
vt 0.999996 0.657368
vt 0.725112 0.880979
vt 0.868426 0.644588
vt 0.697560 0.885445
vt 0.893341 0.163233
vt 0.083739 0.098206
vt 0.111650 0.098206
vt 0.766111 0.975324
vt 0.307051 0.000000
vt 0.307025 0.766512
vt 0.801219 0.861400
vt 0.948268 0.153272
vt 0.773307 0.861406
vt 0.139562 0.098206
vt 0.893341 0.346270
vt 0.948268 0.356233
vt 0.829130 0.861393
vt 0.920805 0.351251
vt 0.920805 0.158252
vt 0.083732 0.000000
vt 0.320496 0.822333
vt 0.987347 0.254753
vt 0.320496 0.794423
vt 0.111643 0.000000
vt 0.317405 0.794422
vt 0.314315 0.794422
vt 0.801260 0.970243
vt 0.993429 0.253650
vt 0.773349 0.970251
vt 0.314315 0.822333
vt 0.320496 0.766512
vt 0.987347 0.254753
vt 0.139555 0.000000
vt 0.993429 0.255857
vt 0.314315 0.766512
vt 0.829172 0.970237
vt 0.990388 0.255304
vt 0.317405 0.766512
vt 0.317405 0.822333
vt 0.990388 0.254201
vt 0.307025 0.794422
vt 0.334962 0.000000
vt 0.310670 0.794423
vt 0.944173 0.555874
vt 0.314315 0.822333
vt 0.944177 0.554708
vt 0.314315 0.794423
vt 0.972089 0.554708
vt 0.307025 0.822333
vt 0.936978 0.554708
vt 0.362873 0.000000
vt 0.314315 0.766512
vt 1.000000 0.554708
vt 0.773307 0.974157
vt 0.940575 0.555291
vt 0.310670 0.822333
vt 0.310670 0.766512
vt 0.769709 0.974741
s 0
f 7/17/1 12/27/1 5/11/1
f 3/7/2 8/19/2 4/8/2
f 7/17/3 6/15/3 8/18/3
f 2/4/4 8/20/4 6/13/4
f 1/2/5 4/10/5 2/3/5
f 5/12/6 2/5/6 6/14/6
f 11/25/7 13/29/7 9/21/7
f 1/2/8 9/21/8 3/6/8
f 5/12/9 11/26/9 1/1/9
f 3/7/10 10/23/10 7/16/10
f 14/31/1 20/44/1 16/35/1
f 10/24/11 16/35/11 12/27/11
f 9/22/12 14/32/12 10/23/12
f 12/28/13 15/33/13 11/26/13
f 20/43/14 37/80/14 53/109/14
f 13/30/10 18/40/10 14/32/10
f 16/36/9 19/41/9 15/33/9
f 15/34/8 17/37/8 13/29/8
f 63/128/15 46/92/15 99/181/15
f 26/58/16 58/117/16 17/37/16
f 27/60/17 59/119/17 20/44/17
f 25/57/18 57/114/18 18/40/18
f 38/82/19 105/193/19 79/151/19
f 54/111/15 66/134/15 97/178/15
f 59/120/15 67/135/15 96/177/15
f 68/136/15 56/113/15 95/176/15
f 69/137/15 70/140/15 94/174/15
f 48/98/20 71/141/20 93/173/20
f 72/142/15 55/112/15 92/172/15
f 73/143/21 74/144/21 91/171/21
f 94/175/1 112/204/1 116/211/1
f 76/148/22 61/125/22 89/168/22
f 77/149/15 78/150/15 88/167/15
f 65/133/15 79/152/15 87/166/15
f 80/155/15 57/115/15 86/164/15
f 81/156/15 82/158/15 85/163/15
f 52/107/15 83/161/15 84/162/15
f 84/162/15 45/91/15 81/156/15
f 67/135/15 81/156/15 41/87/15
f 27/61/15 84/162/15 67/135/15
f 85/163/15 38/83/15 65/133/15
f 56/113/15 65/133/15 29/63/15
f 41/87/15 85/163/15 56/113/15
f 57/116/1 106/195/1 86/165/1
f 50/101/23 101/187/23 25/57/23
f 45/91/15 86/164/15 82/158/15
f 87/166/15 44/90/15 77/149/15
f 66/134/15 77/149/15 40/86/15
f 29/63/15 87/166/15 66/134/15
f 88/167/15 31/68/15 58/118/15
f 55/112/15 58/118/15 26/59/15
f 40/86/15 88/167/15 55/112/15
f 89/168/15 21/47/15 47/96/15
f 78/150/24 47/96/24 31/68/24
f 78/150/25 76/148/25 89/168/25
f 90/169/15 43/89/15 73/143/15
f 60/122/15 73/143/15 33/72/15
f 75/146/26 111/203/26 39/85/26
f 91/171/27 35/76/27 62/127/27
f 49/100/15 62/127/15 23/51/15
f 33/72/28 91/171/28 49/100/28
f 92/172/15 26/59/15 51/105/15
f 74/144/15 51/105/15 35/76/15
f 43/89/15 92/172/15 74/144/15
f 69/137/15 71/141/15 42/88/15
f 64/132/29 69/137/29 37/81/29
f 24/56/15 93/173/15 64/132/15
f 90/170/8 114/208/8 75/145/8
f 53/109/30 109/199/30 28/62/30
f 37/81/15 94/174/15 53/108/15
f 95/176/15 29/63/15 54/111/15
f 70/140/15 54/111/15 39/84/15
f 42/88/15 95/176/15 70/140/15
f 96/177/15 41/87/15 68/136/15
f 71/141/15 68/136/15 42/88/15
f 32/70/15 96/177/15 71/141/15
f 97/178/15 40/86/15 72/142/15
f 75/147/15 72/142/15 43/89/15
f 39/84/15 97/178/15 75/147/15
f 98/179/15 34/74/15 76/148/15
f 79/152/15 76/148/15 44/90/15
f 50/103/8 107/196/8 100/185/8
f 99/182/31 30/66/31 80/154/31
f 83/161/15 80/155/15 45/91/15
f 36/79/32 99/184/32 83/160/32
f 103/190/33 131/245/33 105/193/33
f 102/188/1 132/247/1 128/236/1
f 107/196/8 110/200/8 100/185/8
f 100/186/34 126/234/34 101/187/34
f 98/180/8 105/194/8 107/196/8
f 82/159/19 103/190/19 38/82/19
f 86/165/1 102/188/1 82/157/1
f 25/57/23 104/191/23 57/114/23
f 112/204/1 125/232/1 116/211/1
f 108/198/35 118/216/35 109/199/35
f 111/203/36 121/221/36 112/205/36
f 114/208/8 124/229/8 123/226/8
f 60/123/8 115/210/8 90/170/8
f 39/85/26 112/205/26 70/138/26
f 53/110/1 116/211/1 108/197/1
f 28/62/30 113/206/30 60/121/30
f 119/217/15 123/227/15 124/230/15
f 118/215/15 124/230/15 122/223/15
f 125/231/15 120/218/15 119/217/15
f 117/213/15 119/217/15 118/215/15
f 115/210/8 122/224/8 124/229/8
f 114/209/36 120/219/36 111/203/36
f 109/199/35 122/225/35 113/206/35
f 116/211/1 117/214/1 108/197/1
f 127/235/15 110/202/15 133/249/15
f 132/248/15 126/233/15 127/235/15
f 128/237/15 127/235/15 129/239/15
f 129/239/15 133/249/15 131/244/15
f 105/194/8 133/250/8 107/196/8
f 106/195/1 130/242/1 132/247/1
f 101/187/34 130/243/34 104/191/34
f 102/189/33 129/240/33 103/190/33
f 7/17/1 10/24/1 12/27/1
f 3/7/2 7/16/2 8/19/2
f 7/17/3 5/11/3 6/15/3
f 2/4/4 4/9/4 8/20/4
f 1/2/5 3/6/5 4/10/5
f 5/12/6 1/1/6 2/5/6
f 11/25/7 15/34/7 13/29/7
f 1/2/8 11/25/8 9/21/8
f 5/12/9 12/28/9 11/26/9
f 3/7/10 9/22/10 10/23/10
f 14/31/1 18/39/1 20/44/1
f 10/24/11 14/31/11 16/35/11
f 9/22/12 13/30/12 14/32/12
f 12/28/13 16/36/13 15/33/13
f 23/52/37 19/41/37 49/99/37
f 19/41/14 20/43/14 28/62/14
f 33/71/14 19/41/14 60/121/14
f 20/43/38 24/54/38 64/131/38
f 20/43/39 64/131/39 37/80/39
f 33/71/40 49/99/40 19/41/40
f 53/109/14 28/62/14 20/43/14
f 28/62/14 60/121/14 19/41/14
f 13/30/10 17/38/10 18/40/10
f 16/36/9 20/43/9 19/41/9
f 15/34/8 19/42/8 17/37/8
f 63/128/15 22/48/15 46/92/15
f 21/45/41 17/37/41 31/67/41
f 17/37/16 19/42/16 26/58/16
f 31/67/16 17/37/16 58/117/16
f 19/42/42 23/53/42 62/126/42
f 35/75/16 51/104/16 19/42/16
f 51/104/16 26/58/16 19/42/16
f 19/42/43 62/126/43 35/75/43
f 31/67/8 47/95/8 21/45/8
f 24/55/44 20/44/44 48/97/44
f 20/44/17 18/39/17 27/60/17
f 32/69/17 20/44/17 59/119/17
f 18/39/45 22/49/45 36/77/45
f 22/49/1 63/129/1 36/77/1
f 36/77/17 52/106/17 18/39/17
f 52/106/17 27/60/17 18/39/17
f 32/69/46 48/97/46 20/44/46
f 22/50/47 18/40/47 30/64/47
f 18/40/18 17/38/18 25/57/18
f 30/64/18 18/40/18 57/114/18
f 17/38/48 21/46/48 34/73/48
f 21/46/10 61/124/10 34/73/10
f 34/73/18 50/101/18 17/38/18
f 50/101/18 25/57/18 17/38/18
f 30/64/10 46/93/10 22/50/10
f 38/82/19 103/190/19 105/193/19
f 54/111/15 29/63/15 66/134/15
f 59/120/15 27/61/15 67/135/15
f 68/136/15 41/87/15 56/113/15
f 69/137/15 42/88/15 70/140/15
f 48/98/20 32/70/20 71/141/20
f 72/142/15 40/86/15 55/112/15
f 73/143/15 43/89/15 74/144/15
f 94/175/1 70/139/1 112/204/1
f 76/148/22 34/74/22 61/125/22
f 77/149/15 44/90/15 78/150/15
f 65/133/15 38/83/15 79/152/15
f 80/155/15 30/65/15 57/115/15
f 81/156/15 45/91/15 82/158/15
f 52/107/15 36/78/15 83/161/15
f 84/162/15 83/161/15 45/91/15
f 67/135/15 84/162/15 81/156/15
f 27/61/15 52/107/15 84/162/15
f 85/163/15 82/158/15 38/83/15
f 56/113/15 85/163/15 65/133/15
f 41/87/15 81/156/15 85/163/15
f 57/116/1 104/192/1 106/195/1
f 50/101/23 100/186/23 101/187/23
f 45/91/15 80/155/15 86/164/15
f 87/166/15 79/152/15 44/90/15
f 66/134/15 87/166/15 77/149/15
f 29/63/15 65/133/15 87/166/15
f 88/167/15 78/150/15 31/68/15
f 55/112/15 88/167/15 58/118/15
f 40/86/15 77/149/15 88/167/15
f 89/168/15 61/125/15 21/47/15
f 78/150/24 89/168/24 47/96/24
f 78/150/15 44/90/15 76/148/15
f 90/169/15 75/147/15 43/89/15
f 60/122/15 90/169/15 73/143/15
f 75/146/26 114/209/26 111/203/26
f 91/171/27 74/144/27 35/76/27
f 49/100/15 91/171/15 62/127/15
f 33/72/28 73/143/28 91/171/28
f 92/172/15 55/112/15 26/59/15
f 74/144/15 92/172/15 51/105/15
f 43/89/15 72/142/15 92/172/15
f 69/137/49 93/173/49 71/141/49
f 64/132/29 93/173/29 69/137/29
f 24/56/15 48/98/15 93/173/15
f 90/170/8 115/210/8 114/208/8
f 53/109/30 108/198/30 109/199/30
f 37/81/15 69/137/15 94/174/15
f 95/176/15 56/113/15 29/63/15
f 70/140/15 95/176/15 54/111/15
f 42/88/15 68/136/15 95/176/15
f 96/177/15 67/135/15 41/87/15
f 71/141/15 96/177/15 68/136/15
f 32/70/15 59/120/15 96/177/15
f 97/178/15 66/134/15 40/86/15
f 75/147/15 97/178/15 72/142/15
f 39/84/15 54/111/15 97/178/15
f 98/179/15 50/102/15 34/74/15
f 79/152/15 98/179/15 76/148/15
f 50/103/8 98/180/8 107/196/8
f 99/182/31 46/94/31 30/66/31
f 83/161/50 99/183/50 80/155/50
f 36/79/32 63/130/32 99/184/32
f 103/190/33 129/240/33 131/245/33
f 102/188/1 106/195/1 132/247/1
f 107/196/8 133/250/8 110/200/8
f 100/186/34 110/201/34 126/234/34
f 98/180/8 79/153/8 105/194/8
f 82/159/19 102/189/19 103/190/19
f 86/165/1 106/195/1 102/188/1
f 25/57/23 101/187/23 104/191/23
f 112/204/1 121/220/1 125/232/1
f 108/198/35 117/212/35 118/216/35
f 111/203/36 120/219/36 121/221/36
f 114/208/8 115/210/8 124/229/8
f 60/123/8 113/207/8 115/210/8
f 39/85/26 111/203/26 112/205/26
f 53/110/1 94/175/1 116/211/1
f 28/62/30 109/199/30 113/206/30
f 119/217/15 120/218/15 123/227/15
f 118/215/15 119/217/15 124/230/15
f 125/231/15 121/222/15 120/218/15
f 117/213/15 125/231/15 119/217/15
f 115/210/8 113/207/8 122/224/8
f 114/209/36 123/228/36 120/219/36
f 109/199/35 118/216/35 122/225/35
f 116/211/1 125/232/1 117/214/1
f 127/235/15 126/233/15 110/202/15
f 132/248/15 130/241/15 126/233/15
f 128/237/15 132/248/15 127/235/15
f 129/239/15 127/235/15 133/249/15
f 105/194/8 131/246/8 133/250/8
f 106/195/1 104/192/1 130/242/1
f 101/187/34 126/234/34 130/243/34
f 102/189/33 128/238/33 129/240/33
